HIERARCHY
ROOT hip
{
	OFFSET 0.000000 0.000000 0.000000 
	CHANNELS 6 Xposition Yposition Zposition Xrotation Zrotation Yrotation
	JOINT abdomen
	{
		OFFSET 0.000000 3.402643 0.000000 
		CHANNELS 3 Xrotation Zrotation Yrotation
		JOINT chest
		{
			OFFSET 0.000000 8.438565 -0.680529 
			CHANNELS 3 Xrotation Zrotation Yrotation
			JOINT neck
			{
				OFFSET 0.000000 10.207942 -0.272212 
				CHANNELS 3 Xrotation Zrotation Yrotation
				JOINT head
				{
					OFFSET 0.000000 3.130431 0.000000 
					CHANNELS 3 Xrotation Zrotation Yrotation
					End Site
					{
						OFFSET 0.000000 3.130435 0.000000 
					}
				}
			}
			JOINT lCollar
			{
				OFFSET 3.470700 6.669187 -0.816635 
				CHANNELS 3 Yrotation Zrotation Xrotation
				JOINT lShldr
				{
					OFFSET 3.198488 0.000000 0.000000 
					CHANNELS 3 Zrotation Yrotation Xrotation
					JOINT lForeArm
					{
						OFFSET 10.139888 0.000000 0.000000 
						CHANNELS 3 Yrotation Zrotation Xrotation
						JOINT lHand
						{
							OFFSET 8.370511 0.000000 0.000000 
							CHANNELS 3 Zrotation Yrotation Xrotation
							End Site
							{
								OFFSET 4.083176 0.000000 0.000000 
							}
						}
					}
				}
			}
			JOINT rCollar
			{
				OFFSET -3.470700 6.669187 -0.816635 
				CHANNELS 3 Yrotation Zrotation Xrotation
				JOINT rShldr
				{
					OFFSET -3.198488 0.000000 0.000000 
					CHANNELS 3 Zrotation Yrotation Xrotation
					JOINT rForeArm
					{
						OFFSET -10.139888 0.000000 0.000000 
						CHANNELS 3 Yrotation Zrotation Xrotation
						JOINT rHand
						{
							OFFSET -8.370511 0.000000 0.000000 
							CHANNELS 3 Zrotation Yrotation Xrotation
							End Site
							{
								OFFSET -4.083176 0.000000 0.000000 
							}
						}
					}
				}
			}
		}
	}
	JOINT lThigh
	{
		OFFSET 5.308129 -1.633274 1.361059 
		CHANNELS 3 Xrotation Zrotation Yrotation
		JOINT lShin
		{
			OFFSET -2.041588 -20.007561 0.000000 
			CHANNELS 3 Xrotation Zrotation Yrotation
			JOINT lFoot
			{
				OFFSET 0.000000 -19.190928 -1.224953 
				CHANNELS 3 Xrotation Yrotation Zrotation
				End Site
				{
					OFFSET 0.000000 -2.449906 4.627600 
				}
			}
		}
	}
	JOINT rThigh
	{
		OFFSET -5.308129 -1.633274 1.361059 
		CHANNELS 3 Xrotation Zrotation Yrotation
		JOINT rShin
		{
			OFFSET 2.041588 -20.007561 0.000000 
			CHANNELS 3 Xrotation Zrotation Yrotation
			JOINT rFoot
			{
				OFFSET 0.000000 -19.190928 -1.224953 
				CHANNELS 3 Xrotation Yrotation Zrotation
				End Site
				{
					OFFSET 0.000000 -2.449906 4.627600 
				}
			}
		}
	}
}
MOTION
Frames: 8
Frame Time: 0.016667
-60.563110 73.696007 37.602005 25.975300 28.289400 135.218994 -5.094960 -1.655510 3.871050 18.676600 -4.187210 2.207270 -4.324038 0.630178 -17.692432 2.541720 7.959270 -9.470710 2.000000 -2.000000 0.000000 21.750500 -43.759499 86.295097 92.276001 -0.209032 0.156176 0.062017 -0.048847 -154.645996 -2.000000 2.000000 0.000000 67.003998 -7.108520 -159.470001 -62.617699 0.277729 0.121404 -0.065785 -0.049607 -115.203003 -28.056833 8.342875 -0.282163 79.626816 -0.016916 4.395841 15.168961 -19.491119 4.311654 -29.861403 -0.345467 -0.333650 78.171539 0.227543 -4.527204 1.844797 -12.987450 1.182215 
-60.744312 73.622429 37.535614 26.840500 29.236200 135.720993 -4.896520 -1.823280 3.119710 19.021200 -3.114120 1.684870 -3.761770 1.608609 -17.800861 2.817220 8.574690 -9.455460 2.000000 -2.000000 0.000000 22.760401 -43.154202 87.991402 91.133400 -0.211952 0.156264 0.061453 -0.056812 -153.972000 -2.000000 2.000000 0.000000 65.360199 -3.677230 -156.658005 -61.260300 0.280587 0.119880 -0.062701 -0.041186 -118.405998 -26.519360 9.109218 0.851597 79.124519 0.063214 4.366923 16.254061 -19.970469 4.875679 -27.345545 -0.717876 -0.298787 76.952454 0.071469 -4.476111 4.606740 -12.798587 1.679973 
-60.832497 73.559631 37.483265 26.960400 30.367800 136.210007 -4.348450 -1.650740 2.542540 19.853100 -2.021330 1.255270 -2.724940 1.669318 -18.220388 3.548250 8.818910 -9.475220 2.000000 -2.000000 0.000000 23.724100 -42.968700 88.948402 90.410698 -0.213799 0.156289 0.060879 -0.054899 -153.259995 -2.000000 2.000000 0.000000 64.225899 -0.799081 -155.412003 -61.230999 0.280648 0.119846 -0.059695 -0.031126 -122.155998 -25.740423 10.818563 1.471324 79.584816 0.058987 4.382671 14.937747 -20.618053 4.632459 -25.302633 -0.303630 -0.700152 75.950462 -0.032671 -4.433873 7.142717 -12.092957 2.084797 
-60.908775 73.523453 37.450012 27.054300 31.294701 136.824005 -4.337550 -1.598530 1.879760 20.058500 -1.201130 0.840519 -2.255030 2.028551 -18.260151 3.934000 9.003960 -9.378080 2.000000 -2.000000 0.000000 24.304199 -42.558601 90.761703 89.228996 -0.216689 0.136749 0.050273 -0.042160 -152.156006 -2.000000 2.000000 0.000000 64.255997 0.335599 -156.268997 -62.969299 0.276983 0.121787 -0.058465 -0.026135 -123.991997 -25.281630 12.414633 1.770583 80.476143 0.006740 4.378411 11.293954 -20.675522 3.332167 -23.800959 0.173393 -1.127607 75.194550 -0.112969 -4.413194 9.406590 -11.743787 2.446216 
-61.019764 73.499756 37.433163 25.933201 32.705101 136.492004 -4.418840 -1.323030 1.494640 20.214800 -0.927718 0.640300 -1.339730 2.039345 -18.723854 4.665900 9.060520 -9.389780 2.000000 -2.000000 0.000000 24.669300 -41.874901 92.626900 88.164597 -0.219228 0.136692 0.049912 -0.040813 -151.658005 -2.000000 2.000000 0.000000 64.414597 0.116589 -158.807999 -67.754402 0.266607 0.126547 -0.056366 -0.015290 -127.936996 -25.638439 15.146392 1.371392 81.828407 -0.071272 4.388245 8.305014 -19.403267 2.075264 -22.961357 1.965308 -1.853908 74.096764 -0.175130 -4.388343 12.295750 -10.568312 2.759953 
-61.109070 73.528625 37.407997 26.695101 32.421700 137.444000 -4.326690 -1.713840 0.797258 20.566401 -0.449219 0.204925 -0.840255 3.162077 -18.822975 5.043670 9.459230 -9.273970 2.000000 -2.000000 0.000000 25.171000 -40.194901 94.654701 87.217300 -0.221487 0.136601 0.049597 -0.039595 -151.209000 -2.000000 2.000000 0.000000 65.257599 -0.020784 -162.852005 -73.867699 0.252837 0.131340 -0.056194 -0.014182 -128.337997 -25.657356 14.763099 1.024086 82.565079 -0.152431 4.404432 6.765286 -17.865789 1.232562 -22.381514 1.201660 -2.164865 73.468300 -0.254620 -4.375202 13.850431 -9.486013 2.783531 
-61.162994 73.582321 37.407997 27.811899 31.845301 138.160995 -4.427240 -2.249140 0.173958 20.585899 0.117187 -0.214764 -0.988810 4.283987 -18.858662 5.134610 9.800510 -9.213980 2.000000 -2.000000 0.000000 25.192801 -38.162998 97.287399 86.621597 -0.222906 0.136525 0.049672 -0.039887 -151.315994 -2.000000 2.000000 0.000000 65.367203 0.377881 -166.347000 -81.621597 0.234770 0.135265 -0.055835 -0.011664 -129.246002 -25.395624 13.835492 0.792650 83.085350 -0.194830 4.418140 6.708300 -15.711047 0.807419 -21.940350 0.375031 -1.828313 72.741470 -0.331337 -4.344919 14.254715 -9.969155 2.993573 
-61.170864 73.558846 37.395416 27.900999 32.187302 137.768005 -4.623000 -2.339010 0.207768 20.244101 0.312495 -0.226314 -0.103382 4.212354 -19.539413 6.005670 9.667920 -9.236400 2.000000 -2.000000 0.000000 25.834101 -37.049301 98.498100 86.065002 -0.224232 0.136440 0.049996 -0.041130 -151.774994 -2.000000 2.000000 0.000000 64.930000 1.619010 -170.904007 -91.162498 0.212273 0.117168 -0.055128 -0.005525 -131.453003 -25.422136 14.410222 0.325390 84.204216 -0.290386 4.437984 6.588913 -14.833366 0.684113 -21.681255 0.966182 -1.757460 71.484756 -0.453093 -4.293872 14.565231 -10.383147 3.216825 
